# xmcd
#
# Track frame offsets: 
#        150
#        20727
#        37060
#        49691
#        68048
#        87503
#        105207
#        124972
#        143336
#        167624
#        182523
#        197443
#        212529
#        229459
#        242755
#        266585
#
# Disc length: 3776 seconds
#
# Revision: 0
# Processed by: cddbd v1.5.2PL0 Copyright (c) Steve Scherf et al.
# Submitted via: ExactAudioCopyFreeDBPlugin 1.0
#
DISCID=d80ebe10
DTITLE=Cantece de craciun - Cantece de craciun - Pentru vremuri mai bu
DTITLE=ne - Promo disc Cristian Diaconescu
DYEAR=2008
DGENRE=Ballad
TTITLE0=Christmas time
TTITLE1=Winter Wonderland
TTITLE2=Please Come Home For Christmas
TTITLE3=Driving Home For Christmas
TTITLE4=Thank God It's Christmas
TTITLE5=All I Want For Christmas
TTITLE6=Last Christmas
TTITLE7=What If
TTITLE8=The Power Of Love
TTITLE9=2000 Miles
TTITLE10=Merry Christmas Everyone
TTITLE11=Happy Xmas (War Is Over)
TTITLE12=Wonderful Christmas Time
TTITLE13=Stop The Cavalry
TTITLE14=Mary's Boy Child - Oh My Lord
TTITLE15=Do They Know It's Christmas (Feed The World)
EXTD=
EXTT0=
EXTT1=
EXTT2=
EXTT3=
EXTT4=
EXTT5=
EXTT6=
EXTT7=
EXTT8=
EXTT9=
EXTT10=
EXTT11=
EXTT12=
EXTT13=
EXTT14=
EXTT15=
PLAYORDER=
